<?xml version="1.0" encoding="UTF-8" standalone="no"?>
<!-- Created with Inkscape (http://www.inkscape.org/) -->

<svg
   xmlns:dc="http://purl.org/dc/elements/1.1/"
   xmlns:cc="http://creativecommons.org/ns#"
   xmlns:rdf="http://www.w3.org/1999/02/22-rdf-syntax-ns#"
   xmlns:svg="http://www.w3.org/2000/svg"
   xmlns="http://www.w3.org/2000/svg"
   xmlns:sodipodi="http://sodipodi.sourceforge.net/DTD/sodipodi-0.dtd"
   xmlns:inkscape="http://www.inkscape.org/namespaces/inkscape"
   id="svg3039"
   version="1.1"
   inkscape:version="0.48.2 r9819"
   width="500"
   height="500"
   sodipodi:docname="profile.svg">
  <metadata
     id="metadata3045">
    <rdf:RDF>
      <cc:Work
         rdf:about="">
        <dc:format>image/svg+xml</dc:format>
        <dc:type
           rdf:resource="http://purl.org/dc/dcmitype/StillImage" />
        <dc:title />
      </cc:Work>
    </rdf:RDF>
  </metadata>
  <defs
     id="defs3043" />
  <sodipodi:namedview
     pagecolor="#ffffff"
     bordercolor="#666666"
     borderopacity="1"
     objecttolerance="10"
     gridtolerance="10"
     guidetolerance="10"
     inkscape:pageopacity="0"
     inkscape:pageshadow="2"
     inkscape:window-width="1232"
     inkscape:window-height="811"
     id="namedview3041"
     showgrid="false"
     inkscape:zoom="0.472"
     inkscape:cx="232.7199"
     inkscape:cy="272.71427"
     inkscape:window-x="0"
     inkscape:window-y="0"
     inkscape:window-maximized="0"
     inkscape:current-layer="svg3039" />
  <path
     sodipodi:nodetypes="cscssccccc"
     inkscape:connector-curvature="0"
     id="path3079"
     d="m 265.89358,472.12687 c -2.6125,-2.51496 -62.46629,-21.24839 -63.3935,-22.68083 l -39.82627,-45.39805 -25.42373,-49.11415 c -1.12349,-2.17039 -9.26548,-33.8114 -10.97325,-31.47589 -1.89474,2.59121 -6.91483,-24.89053 -7.81992,-32.94807 -97.899949,-185.5218 258.10833,-333.694121 292.3186,16.78438 -95.30945,170.15329 -189.3177,223.82408 -144.88193,164.83261 z m 40.09666,-227.24105 c -212.982138,169.07738 -106.49107,84.53869 0,0 z"
     style="fill:#e9c6af;fill-opacity:1" />
  <rect
     style="fill:#f9f9f9;fill-opacity:1;stroke-width:0;stroke-miterlimit:4;stroke-dasharray:none"
     id="rect3329"
     width="43.445122"
     height="36.329109"
     x="280.52066"
     y="226.96989"
     ry="1.1235807" />
  <rect
     style="fill:#f9f9f9;fill-opacity:1;stroke-width:0;stroke-miterlimit:4;stroke-dasharray:none"
     id="rect3327"
     width="26.216883"
     height="27.340464"
     x="156.92677"
     y="241.95097"
     ry="1.1235807" />
  <path
     sodipodi:nodetypes="cc"
     inkscape:connector-curvature="0"
     id="path3081"
     d="m 236.51703,498.50189 c -166.666665,0 -83.33333,0 0,0 z"
     style="fill:#bc9b65" />
  <path
     sodipodi:nodetypes="cccccscccccssscccssscccccccccccscscssssssssccccccccccccccscsscccsscssscssscccccccsssscccssscccccccccccccsccccccscc"
     inkscape:connector-curvature="0"
     id="path3077"
     d="M 117.74427,295.51282 C 102.00266,215.34946 136.72419,96.904013 129.64106,151.01789 298.91415,-248.93931 464.17722,244.06584 367.9893,394.61154 266.05358,547.04808 157.36063,463.67492 117.74427,295.51282 z m 183.54358,113.00595 c -1.9802,-2.476 -21.07371,28.54958 -24.69287,31.64841 l -2.07795,1.77919 0,3.27776 0,3.27776 2.42742,0 c 25.39652,-11.661 34.79717,-26.74255 24.3434,-39.98312 z m -39.02082,1.59064 c 1.7875,-0.6033 3.25,-1.43679 3.25,-1.85221 0,-1.28931 -4.51617,-0.82975 -6.55887,0.66742 l -4.56282,1.23548 -7.68158,1.95113 -29.77868,-4.41581 12.61223,4.14989 c 1.53081,0.50369 15.53439,3.49841 16.35939,3.15992 0.825,-0.33849 14.57283,-4.29253 16.36033,-4.89582 z m -87.71694,6.15476 c 43.94604,48.36726 48.17118,30.40678 43.10009,9.63814 l -40.15301,-43.16737 c 25.8106,6.77529 73.10606,3.7076 94.67266,0.19827 l 5.08942,-0.70109 c -12.1904,-18.09825 -74.40773,-20.67252 -73.34776,-44.87642 -0.52283,-3.89468 5.80843,-4.93457 8.34681,-5 4.3319,-0.66434 7.81548,-0.17291 11.36298,2.00989 2.79134,2.2187 6.73807,2.27332 10.11883,2.31923 31.80955,-12.84877 17.48513,-38.18571 23.06086,-60.40422 0.79208,-3.14671 1.30225,-5.85918 1.13372,-6.02772 -0.16854,-0.16854 -0.76612,-3.66896 -1.32795,-7.77871 -2.68697,-19.65473 -3.41202,-23.52286 -4.53116,-24.17336 -0.66338,-0.3856 -1.80845,-2.52609 -2.5446,-4.75666 l -1.33846,-4.05557 4.3799,-3.92479 c 2.40895,-2.15863 6.30045,-4.88395 8.64778,-6.05627 2.34733,-1.17231 4.64647,-2.80798 5.10918,-3.63481 0.93536,-1.67138 6.82241,-3.29869 12.18765,-3.36893 1.925,-0.0252 5.525,-0.99258 8,-2.14974 2.475,-1.15715 6.075,-2.4623 8,-2.90031 1.925,-0.43802 5.75,-1.55375 8.5,-2.47941 2.75,-0.92566 6.89984,-2.2844 9.22187,-3.01942 l 4.22188,-1.3364 3.39492,0.55092 3.39491,0.55092 1.6642,-2.35922 1.6642,-2.35923 4.71901,0 4.71901,0 0.31955,-2.25 0.31955,-2.25 -1.28612,0 c -1.7253,-29.33478 -27.37048,-42.84778 -38.06854,-49.78982 -9.63989,-6.01193 -8.07228,-3.83161 -22.78444,-4.60148 -32.53963,10.20771 -91.48614,3.01266 -109.11601,17.02056 -4.08477,15.82564 -16.88399,29.69001 -16.88399,46.03432 0,0.85172 1.20569,2.49698 2.67932,3.65613 l 2.67932,2.10756 7.39926,0.29323 c 4.06959,0.16128 8.3764,0.81894 9.57068,1.46146 1.19428,0.64251 3.74642,1.4919 5.67142,1.88752 14.15045,3.63969 23.7719,1.8381 36.35265,7.7758 24.9006,21.20764 3.67414,62.2229 -23.64238,67.23137 -3.41565,0.62625 -6.88527,1.44587 -7.71027,1.82137 -0.825,0.37551 -5.59718,0.64662 -10.60485,0.60248 l -9.10485,-0.0803 -2.60997,-1.71011 c -1.43548,-0.94054 -3.27015,-1.71009 -4.07705,-1.71009 -1.94003,0 -5.73928,-5.4299 -6.54058,-9.3478 l -0.63779,-3.11844 -4.95408,-0.83056 c -2.72475,-0.45681 -5.68027,-1.48776 -6.56784,-2.29099 -2.84091,-2.57099 -6.74025,0.79171 -9.95828,8.58779 l -1.44471,3.5 0.2888,15 0.28879,15 c 18.62276,67.78725 44.52133,99.35505 48.95547,105.26228 z M 362.43816,312.6971 c 4.45508,-12.82834 9.65224,-22.30393 7.62956,-33.52591 l -1.05093,-5.8307 -1.74988,-1.27954 c -0.96243,-0.70375 -1.74988,-1.96929 -1.74988,-2.81231 0,-1.40845 -1.95397,-2.74675 -4.01036,-2.74675 -0.46573,0 -1.60743,0.76065 -2.53712,1.69034 l -1.69034,1.69033 -3.95326,0.19172 -3.95327,0.19172 -2.73254,2.61795 c -1.5029,1.43987 -3.72042,2.61794 -4.92783,2.61794 -1.2074,0 -2.98777,0.79249 -3.95637,1.76109 -2.75525,2.75525 -8.61176,4.05483 -23.73891,5.26778 -5.71351,0.13701 -11.39927,2.11637 -16.8151,0.0469 -1.5483,-0.5917 -3.72156,-1.07577 -4.82945,-1.07577 -7.00133,-0.60962 -6.4363,-4.65542 -9.85545,3.78318 -2.79416,6.54702 -0.44921,13.39185 1.50967,15.22484 4.39983,4.1226 1.28197,11.64075 4.90392,15.26272 4.78506,6.9811 9.99946,10.73148 12.93691,15.19392 27.17025,18.43295 38.23737,-5.26717 60.57063,-18.26945 z m -181.92113,-48.987 c -5.42335,-5.95746 -9.09476,-11.14602 -7.86704,-18.11619 l -8.13335,4.57404 c -14.49741,11.20221 14.63129,16.04082 16.00039,13.54215 z m 135.78988,-6.76813 c 2.33627,-0.89651 -2.34154,-1.98338 -5.53988,-6.1933 l -2.75,-3.61977 0,-3.5635 0,-3.56351 -3.15838,-0.30653 -3.15839,-0.30652 c -2.16235,2.72316 -5.43343,4.39731 -8.21721,5.25861 l -1.48301,3.54934 c -1.89094,4.52567 -1.89184,4.51564 0.69534,7.80471 3.54202,4.24548 18.55083,2.46471 23.61153,0.94047 z"
     style="fill:#deaa87" />
  <path
     sodipodi:nodetypes="ccccccccccsscsscccccccssscccccccsscccccccccccssssssssscscsscccssscccccccccsssscccssscccsccsscccccccccccsssssssscccssscssssssscssscccsscssssscsscccccsssscsscccccccsscsscsscsscccsscsscccccccssscccsscssscsscccssscscssscssscccsscscccccsscccssscccccsscssscccccscsscsscssscccccscsssssscsssscsscsscccssssccccccccscccsssccsssssssssssscssssssscsscssscssscccccsscccccccsssccsscscssccccccssscsscssscccssscccssssscssscccscscccscccssscccccccssscssssscsscccccccsscssccscsscccsssscsccccsscccsscsscs"
     inkscape:connector-curvature="0"
     id="path3073"
     d="m 77.480425,498.49131 c -60.642262,0.007 -30.321131,0.004 0,0 z m 114.033075,-21.73089 -1.1743,-7.24148 -3.29283,-24.4777 c -8.6585,-18.11479 0.8897,-2.5276 10.04653,-4.54151 l 6.3679,-0.12869 1.39524,0.81543 c 8.94243,8.60212 27.38204,22.06278 35.37916,21.13184 l 2.71818,-0.31642 0.97035,-3.5 c 0.5337,-1.925 1.44802,-3.87176 2.03183,-4.32613 l 1.06147,-0.82613 -1.26786,-0.51316 c -0.69732,-0.28223 -1.93482,-1.18012 -2.75,-1.99529 l -1.48214,-1.48215 0,-3.95995 0,-3.95996 -1.5,-0.5756 -1.5,-0.57561 0,-2.44404 0,-2.44403 -3.36837,-1.4074 c -4.18883,-1.7502 -7.56136,-4.45333 -14.33605,-11.49055 -7.58213,-7.87595 -6.82117,-10.11163 2.06401,-6.06396 l 4.24986,1.93603 10.06054,0.48501 10.06054,0.48501 3.16926,-1.92734 3.16926,-1.92734 3.7937,0.60663 3.79371,0.60664 1.42177,-1.39796 c 1.44629,-1.42207 1.42927,-1.59919 9.35646,-2.09238 l 5.05827,-0.3147 1.08169,-2.16965 1.08169,-2.16965 1.17183,1.17183 1.17183,1.17183 1.24164,-1.24164 1.24164,-1.24164 -1.15027,-0.71091 -1.15027,-0.71091 0.52521,-2.74745 0.5252,-2.74745 1.38343,0 c 0.76088,0 1.38342,-0.675 1.38342,-1.5 0,-1.73232 -2.11091,-1.98909 -3.65536,-0.44464 -0.58045,0.58045 -4.83295,1.27879 -9.45,1.55187 -4.61705,0.27307 -9.51964,0.92632 -10.89464,1.45166 -4.12356,1.57548 -34.19089,2.5592 -36.40459,1.19106 -0.56225,-0.34749 -2.83873,-0.9611 -5.05884,-1.36357 -8.11615,-1.47132 -21.15702,-6.91238 -26.42143,-11.02383 -1.31167,-1.0244 -3.23829,-1.86255 -4.28138,-1.86255 -1.76968,0 -3.64187,-2.52523 -2.62562,-3.54147 0.25036,-0.25037 3.34346,0.76873 6.87353,2.26466 l 6.41833,2.71987 15.00796,0.14585 c 14.91952,0.145 19.12234,0.58903 25.13578,2.65563 l 3.14374,1.08039 8.85626,-3.02422 8.85626,-3.02422 4.27803,0.46946 c 5.50948,0.60461 22.79359,-1.42593 25.57878,-3.00499 1.17876,-0.66829 3.62057,-1.26893 5.42625,-1.33476 l 3.28306,-0.11969 2.40687,-2.26114 2.40687,-2.26114 4.76608,-0.8904 4.76607,-0.89039 1.42364,1.42364 1.42365,1.42365 -0.61693,2.45805 -0.61693,2.45804 -3.01272,1.24791 c -1.657,0.68635 -3.01272,1.63176 -3.01272,2.10091 0,0.46915 -1.4625,1.60722 -3.25,2.52903 -1.7875,0.92182 -4.92801,2.73303 -6.97891,4.02492 l -3.72891,2.34887 1.10573,2.42683 1.10574,2.42682 -2.76947,4.82394 c -1.5232,2.65317 -3.58271,6.39895 -4.57669,8.32395 -2.08381,4.03561 -8.34744,10.43891 -15.07509,15.41123 l -4.6676,3.44976 -3.27399,0.31951 -3.27399,0.3195 -2.55841,4.07619 c -1.40713,2.24191 -3.6411,5.77304 -4.9644,7.84697 -1.61735,1.86337 -1.67452,5.0778 -3.29969,2.1738 -1.25111,-2.23561 -2.53531,-1.9884 -3.37245,0.6492 -0.3921,1.23539 -1.3367,2.70229 -2.09911,3.25978 l -1.3862,1.01362 1.14734,3.29128 1.14735,3.29127 1.63437,-0.31127 c 14.92206,-9.67151 29.23287,4.80128 61.27576,-20.79081 27.09406,-10.24808 18.97536,16.23384 16.7734,27.53687 -13.40174,36.28726 -26.38044,30.4631 -62.30698,30.4631 -41.53287,-0.91562 -68.95589,12.38076 -74.61133,-21.74147 z m 199.77047,-132.87718 -10.06355,20.81693 c 7.78443,-28.9626 4.52917,-51.45142 2.7699,-95.69828 -0.71955,-19.39012 -1.79549,-28.46306 -3.50033,-29.51671 -0.59098,-0.36525 -1.01946,-2.6484 -0.95218,-5.07369 0.0673,-2.42528 -0.37392,-7.5596 -0.98045,-11.4096 -0.60653,-3.85 -1.48907,-9.925 -1.9612,-13.5 -0.47213,-3.575 -1.61046,-8.525 -2.52961,-11 -0.91916,-2.475 -1.81103,-5.85 -1.98195,-7.5 -0.6371,-6.15067 -7.16626,-17.5 -10.06757,-17.5 -0.63325,0 -2.20825,-1.125 -3.5,-2.5 l -2.34863,-2.5 -2.34712,0 -2.34713,0 -1.19226,-2.75 c -0.65574,-1.5125 -2.78359,-4.33616 -4.72856,-6.27479 -1.94496,-1.93864 -4.65636,-4.97614 -6.02532,-6.75 l -2.48903,-3.22521 -2.01097,-0.0242 c -1.10604,-0.0133 -4.03598,-1.59597 -6.51098,-3.51696 -2.475,-1.92099 -5.97413,-4.43639 -7.77584,-5.58977 -1.80171,-1.15339 -3.74586,-2.97531 -4.32034,-4.04873 -0.57447,-1.07342 -2.92535,-2.76234 -5.22416,-3.75315 -2.29881,-0.99082 -6.20466,-2.72211 -8.67966,-3.84732 -2.475,-1.1252 -6.87854,-2.62416 -9.78564,-3.33101 l -5.28564,-1.28518 -12.21436,1.26567 c -6.7179,0.69612 -15.81436,1.51387 -20.21436,1.81722 -8.42086,0.58055 -18.85631,3.46028 -21.66681,5.97907 l -1.66682,1.49382 -1.98451,-1.06208 -1.98452,-1.06208 -3.34867,1.1209 c -1.84177,0.61649 -4.29124,1.97131 -5.44327,3.0107 l -2.09461,1.8898 -5.90539,-3.1036 c -3.24797,-1.70698 -6.61583,-3.74472 -7.48414,-4.52832 -0.86831,-0.7836 -2.60355,-1.42473 -3.8561,-1.42473 -1.25254,0 -3.91711,-1.2887 -5.92126,-2.86378 -3.57434,-2.80911 -6.02132,-3.57455 -15.23781,-4.76654 l -4.59391,-0.59414 -6.59625,4.2351 c -3.62794,2.32931 -6.83406,4.85481 -7.12471,5.61223 l -0.52845,1.37708 -2.95365,0 -2.95364,0 -4.28849,3.27094 -4.28849,3.27094 -1.69096,6.47906 c -0.93003,3.56348 -2.18519,7.74585 -2.78925,9.29416 -0.60406,1.5483 -1.09829,4.09883 -1.09829,5.66784 0,1.569 -1.15275,5.14781 -2.56167,7.95291 l -2.56167,5.10017 0.61707,1.94422 c 0.33939,1.06932 0.20811,2.74871 -0.29172,3.73199 l -0.90878,1.78777 0.89221,3.28951 0.89222,3.28952 2.52755,0.96097 2.52754,0.96097 -0.31637,2.74096 -0.31638,2.74097 -1.74841,0.33157 c -0.96163,0.18236 -2.53663,-0.45802 -3.5,-1.42306 l -1.75159,-1.75463 -0.6738,4.43161 c -0.62619,4.1185 -0.3196,8.99642 0.82851,13.18161 l 0.48007,1.75 2.27762,0 c 1.25269,0 3.04794,0.85119 3.98943,1.89152 l 1.7118,1.89152 1.87267,-0.48971 c 1.02997,-0.26934 3.21594,0.30378 4.85772,1.2736 l 2.98504,1.76331 7.52706,-2.74527 7.52706,-2.74527 11.30841,2.65578 c 6.21962,1.46068 15.50305,4.05626 20.62984,5.76795 l 9.32143,3.11215 1.55516,3.06221 c 0.85533,1.68422 3.01182,4.41669 4.79218,6.07215 l 3.23703,3.00995 1.56328,6.85345 1.56328,6.85346 -1.08741,2.3866 -1.08741,2.3866 -2.91641,0 -2.91641,0 -3,3 c -3.20818,3.20818 -5.84615,3.91166 -5.84615,1.55902 0,-2.83752 -2.11916,-2.66158 -5.68841,0.47227 l -3.62883,3.18614 -5.82768,-0.42153 -5.82769,-0.42154 -2.60871,-2.43718 c -3.62149,-3.38337 -5.41868,-7.1957 -5.41868,-11.49451 l 0,-3.65665 -1.58179,0.60699 c -0.86998,0.33385 -2.24692,0.60699 -3.05986,0.60699 -0.81294,0 -3.87067,2.26282 -6.79496,5.02849 l -5.31689,5.02849 -0.61761,3.86236 c -0.69403,4.34024 -1.61888,4.91646 -6.62889,4.13005 l -3.5,-0.54939 0.31286,-2.25 0.31286,-2.25 -3.00384,0 c -3.67423,0 -4.05537,-0.57335 -4.80361,-7.22618 -0.32623,-2.9006 -1.00315,-5.79626 -1.50426,-6.43479 l -0.91113,-1.16097 1.11509,-0.68917 c 0.6133,-0.37904 1.33073,-0.47352 1.59429,-0.20997 0.26356,0.26356 2.59612,-1.51338 5.18347,-3.94875 2.58735,-2.43537 5.95113,-4.68907 7.47508,-5.00822 3.756,-0.7866 4.12663,-1.77129 1.24682,-3.31252 l -2.41412,-1.29199 -5.98427,2.23797 c -3.29134,1.23088 -6.75938,3.09445 -7.70674,4.14128 -0.94736,1.04682 -2.30144,1.90331 -3.00906,1.90331 l -1.28658,0 0.32572,5.46274 0.32573,5.46274 -2.38416,3.23154 c -1.31128,1.77735 -2.38415,3.76401 -2.38415,4.41481 0,0.65081 -0.65403,1.72607 -1.45339,2.38949 -0.79937,0.66341 -2.16168,3.64263 -3.02737,6.62048 l -1.57397,5.41428 -0.22264,17.25196 -0.22263,17.25196 -2.459,0 -2.45901,0 -0.63142,-3.08729 c -1.09097,-5.33425 -4.62662,-7.33666 -7.6377,-4.32558 l -1.08713,1.08713 -0.67625,-1.09419 -0.67625,-1.0942 1.81338,-0.56508 c 0.99736,-0.3108 2.47872,-0.91307 3.2919,-1.33838 1.59657,-0.83503 3.24637,-6.74422 2.48817,-8.91205 l -0.46504,-1.32963 -3.25082,0.70715 -3.25083,0.70715 -3.36504,3.91586 -3.36505,3.91585 -1.800308,-0.29337 c -0.99017,-0.16135 -2.95165,0.78654 -4.35885,2.10643 l -2.55855,2.39979 -0.63309,-1.64979 c -0.3482,-0.90739 -1.49907,-1.6498 -2.55748,-1.6498 -1.05842,0 -2.17834,-0.66177 -2.48872,-1.4706 l -0.564323,-1.4706 2.098153,-2.66737 2.09815,-2.66737 -1.75244,-1.34952 -1.75245,-1.34953 2.5,-1.99027 c 1.375,-1.09465 2.85572,-2.00027 3.29049,-2.0125 0.9145,-0.0257 6.13046,-3.56737 9.579158,-6.50426 1.30331,-1.10989 3.44855,-3.7088 4.7672,-5.77536 l 2.39755,-3.75737 -0.65151,-2.74263 c -0.90377,-3.80454 -3.26189,-6.24262 -6.03788,-6.24262 l -2.34501,0 0,-3.3 c 0,-3.43455 -1.470558,-5.7 -3.699998,-5.7 -0.715,0 -1.3,0.69539 -1.3,1.54531 l 0,1.54532 -3.5,-0.65661 -3.5,-0.6566 -0.11848,1.86129 c -0.0652,1.02371 -0.0359,2.46529 0.065,3.20351 0.10092,0.73822 -0.63326,1.94936 -1.63152,2.69143 l -1.81501,1.34921 1.102128,1.80857 c 0.606172,0.99471 2.035992,1.94809 3.177382,2.1186 2.36611,0.35349 4.84623,2.89757 3.8226,3.92119 -0.84435,0.84435 -9.544422,-3.80279 -9.754424,-5.21033 -0.08377,-0.56149 -0.217077,-1.47089 -0.296232,-2.02089 -0.07915,-0.55 -0.7169,-2.04138 -1.417213,-3.31417 l -1.273297,-2.31418 0.251108,-5.42091 c 0.305519,-6.59555 -0.447569,-7.63639 -2.563996,-3.54367 -1.7979,3.47676 -3.045407,4.1028 -2.270461,1.13941 0.280972,-1.07444 -0.09008,-2.76194 -0.824567,-3.75 l -1.335416,-1.79648 0.549607,-2.25 c 0.302284,-1.2375 0.26725,-3.375 -0.07785,-4.75 l -0.62746,-2.5 -4.046689,0 c -2.22568,0 -4.808039,0.40746 -5.738576,0.90547 l -1.691887,0.90547 -2.393757,-1.93835 -2.393756,-1.93834 1.38106,-2.71713 c 0.759583,-1.49441 2.346864,-4.06712 3.52729,-5.71712 1.180426,-1.65 2.427897,-4.5832 2.772157,-6.51823 0.34426,-1.93502 8.525712,-5.45595 9.118525,-7.85874 L 80.258736,178.3109 78.673028,149.69993 C 80.254294,124.04599 68.534882,130.9934 88.932442,108.35371 l 9.20439,-12.359388 7.048368,-6.620742 c 10.7882,-15.590615 4.83498,-8.530332 6.74058,-22.895336 1.48572,-11.199938 7.03177,-17.065475 19.84125,-20.984232 7.76376,-6.975391 6.41164,-9.729972 22.49851,-13.689874 1.23669,-0.294179 3.62851,-2.106593 5.31516,-4.027586 l 3.06665,-3.492715 -0.52009,-1.355336 -0.5201,-1.355337 3.38752,-2.785655 c 1.86313,-1.532111 6.23035,-3.880411 9.70493,-5.218444 3.47458,-1.338034 6.76742,-2.733173 7.31742,-3.100311 0.55,-0.367137 -5.07924,8.298658 -1.50424,7.604782 C 415.16965,-92.62959 419.75762,322.78897 391.28397,343.88324 z M 182.51703,248.50189 c 0,-0.55 -0.45,-1 -1,-1 -0.55,0 -1,0.45 -1,1 0,0.55 0.45,1 1,1 0.55,0 1,-0.45 1,-1 z m -92.999998,-4 c 0,-0.55 -0.47656,-1 -1.05902,-1 -0.58246,0 -0.7809,0.45 -0.44098,1 0.33992,0.55 0.81648,1 1.05902,1 0.24254,0 0.44098,-0.45 0.44098,-1 z m 74.918818,-2.75924 c 4.08035,-1.51452 7.60535,-3.31327 7.83333,-3.99722 l 0.41452,-1.24354 -2.4052,0 c -3.91779,0 -11.1232,2.85284 -14.04266,5.55992 -4.69791,4.35614 -4.36053,4.34301 8.20001,-0.31916 z m 89.58118,120.71843 c -10.11332,-1.71479 -11.46131,-2.06259 -12.71785,-3.28138 -0.70518,-0.684 -2.85715,-2.32514 -4.78215,-3.64697 -1.925,-1.32184 -5.03231,-3.71708 -6.90514,-5.32276 l -3.40515,-2.91941 -3.09485,0.5989 c -1.70217,0.3294 -4.34995,0.88277 -5.88395,1.22972 l -2.78909,0.63081 -3.96091,-4.29044 c -4.6389,-5.02483 -4.85712,-6.22829 -1.41386,-7.79714 4.22098,-1.92321 7.99475,-1.34179 16.02223,2.46854 l 7.64559,3.62905 5.25131,-0.12106 c 5.68089,-0.13096 11.41459,-2.08353 13.50119,-4.59773 0.71948,-0.86693 2.72298,-2.24761 4.45221,-3.06818 l 3.14406,-1.49196 13.39355,0.26041 13.39355,0.26041 0.91467,-3.48711 0.91466,-3.48712 1.32676,1.81446 c 0.72973,0.99796 1.63407,4.04884 2.00967,6.77974 l 0.6829,4.96527 -2.3497,3.45477 -2.3497,3.45478 -4.5,2.05426 -4.5,2.05426 -4.12022,4.614 -4.12021,4.614 -3.37979,0.23329 c -1.85888,0.12832 -4.27978,0.46034 -5.37978,0.73784 -1.1,0.2775 -4.25,0.12304 -7,-0.34325 z m -84.92677,-79.8407 -0.69999,-1.13262 1.31338,-0.41502 c 0.72236,-0.22826 2.95558,-0.68698 4.96272,-1.01937 3.80852,-0.6307 9.94281,-3.28995 10.91496,-4.7317 0.31037,-0.46028 3.56699,-2.37458 7.23693,-4.25399 l 6.67263,-3.41711 0.60776,0.98338 c 0.33427,0.54086 -0.59265,2.79732 -2.05981,5.01435 l -2.66757,4.03097 -5.17712,2.3575 -5.17712,2.35751 -7.61339,0.67936 -7.61339,0.67935 z m 126.7227,-7.37494 c -6.18697,-2.75623 -7.16479,-3.58853 -5.45638,-4.64438 1.32092,-0.81638 15.34407,-0.54613 25.2999,0.48757 l 5.63946,0.58554 6.20172,-1.58881 c 3.41095,-0.87384 6.63254,-1.32254 7.1591,-0.99711 l 0.95739,0.5917 -1.17101,1.41097 c -0.64405,0.77603 -2.3244,1.41097 -3.7341,1.41097 -1.40971,0 -3.49458,0.87507 -4.63304,1.9446 l -2.06994,1.94461 -11.49451,0.58635 -11.49452,0.58635 z m -29.58903,-1.49355 c -0.22613,-0.4125 -1.59129,-4.36505 -3.03369,-8.78343 l -2.62255,-8.03344 0.36857,-11.81047 0.36858,-11.81047 1.10609,-1.10609 c 0.60836,-0.60836 1.1061,-1.6911 1.1061,-2.4061 0,-1.80759 7.20693,-8.83513 11.19682,-10.91811 8.86767,-4.62951 26.38786,-9.80354 38.30318,-11.31164 3.85,-0.48729 8.42917,-1.20202 10.17594,-1.5883 l 3.17594,-0.70233 3.2277,1.61019 c 3.64394,1.81784 6.59168,2.08305 7.08709,0.63764 0.18333,-0.5349 3.5286,-1.26828 7.43392,-1.62971 l 7.10059,-0.65717 4.68957,2.74827 4.68957,2.74827 2.1697,4.13145 c 2.93233,5.5836 4.71675,10.65135 4.73492,13.44718 0.008,1.27366 0.45515,3.13807 0.99305,4.14313 l 0.97798,1.82738 -2.04686,2.60217 -2.04687,2.60217 0.63627,2.00471 c 0.77345,2.43692 -0.21968,2.56701 -2.66977,0.34971 -1.8851,-2.05266 -2.01278,-1.48843 -3.91906,0.23673 l -2.09032,1.89171 -1.34314,-1.83686 c -0.73873,-1.01028 -1.82309,-1.54025 -2.40969,-1.17771 -1.39918,0.86474 -1.3747,5.23263 0.0342,6.10338 l 1.10075,0.6803 -0.54658,2.73289 -0.54658,2.73288 1.10592,1.10592 1.10591,1.10591 -2.41008,2.0692 -2.41008,2.06919 -4.5,-0.59694 c -2.475,-0.32832 -6.975,-1.06309 -10,-1.63282 -3.025,-0.56973 -7.66386,-0.99135 -10.30857,-0.93694 l -4.80858,0.0989 -2.79298,-1.44431 c -2.87088,-1.48456 -9.08986,-7.95597 -9.08986,-9.45879 0,-0.46352 0.675,-1.40296 1.5,-2.08765 1.87574,-1.55673 1.93465,-3 0.12244,-3 -0.75765,0 -1.95435,-0.69501 -2.65934,-1.54446 l -1.28178,-1.54446 -3.09066,0.62017 c -8.02108,1.60949 -16.23572,7.69959 -18.50458,13.71875 l -1.03658,2.75 -2.91776,0 -2.91776,0 -0.67841,1.75 -0.67841,1.75 -1.43053,-1.9438 -1.43053,-1.94379 -2.74805,2.04019 c -1.51143,1.12211 -3.3328,3.12182 -4.0475,4.4438 l -1.29945,2.4036 0.53412,5.75 c 0.49613,5.34105 0.27832,6.83633 -0.72832,5 z m 94.17507,-34.25 c -240.266,173.66541 -120.133,86.8327 0,0 z m -4.38197,-11 -1.55136,-3 -1.82131,0 c -1.00172,0 -2.89615,-0.9322 -4.20983,-2.07156 l -2.38853,-2.07155 -2.31288,0.44213 -2.31289,0.44214 0.30365,-1.57673 c 0.16701,-0.86721 1.42629,-1.84176 2.7984,-2.16567 1.37211,-0.32391 2.49475,-1.20614 2.49475,-1.96051 0,-2.2253 -2.22378,-2.31447 -4.36329,-0.17496 l -1.98828,1.98828 -2.13992,-0.5596 c -1.17696,-0.30778 -3.18019,-0.003 -4.45163,0.67759 l -2.31171,1.23719 -2.57362,-1.6863 -2.57362,-1.68631 -1.85998,0.59034 c -1.02298,0.32468 -3.3456,2.12311 -5.16138,3.99652 l -3.30141,3.40619 0.67144,1.0864 0.67143,1.08641 7.61999,0 c 4.19099,0 9.18785,0.5625 11.10414,1.25 l 3.48415,1.25 0.42018,-1.25 c 0.49888,-1.48413 2.60816,-1.61424 5.01708,-0.30948 1.6025,0.86798 9.72318,3.64261 11.51211,3.93339 0.42662,0.0694 0.0776,-1.22391 -0.77568,-2.87391 z"
     style="fill:#522f20" />
  <path
     sodipodi:nodetypes="sscsssssssscscssccsssscccccssscccscccccssccccccccccccssscccccssccssscccccccccsssscssssssscsscscssssscsssccccccsccsscsscscssssssssssscsssscssscsscsssssscssccscsssscccsssscsssssscsscssscsssssscsscccccsscsscccscssscsssscssscccssssscccccccssssssssssscccccccsssssccssscccccssccscssssccscsssccsscsscssscssssscssscscscccssscsscccscscccccccsscsscsscsssscssscccssssscccsscsscsscscscsssscsssssssscsssssscccccsssss"
     inkscape:connector-curvature="0"
     id="path3071"
     d="m 208.12402,496.9201 c -0.33385,-0.86998 -0.62067,-2.55748 -0.6374,-3.75 l -0.0304,-2.16821 -1.01928,1.75 c -1.60821,2.76113 -2.56477,2.09006 -3.9199,-2.75 -1.24309,-4.43986 -2.28192,-5.47089 -3.51008,-3.48369 -1.00897,1.63256 -2.48992,0.0799 -2.48992,-2.61051 0,-1.36189 -0.69717,-3.54018 -1.54926,-4.84063 -0.85209,-1.30046 -1.67558,-4.77213 -1.82998,-7.71482 -0.15439,-2.94269 -1.04378,-6.81285 -1.97642,-8.60035 -0.93264,-1.7875 -1.40739,-3.25 -1.05501,-3.25 0.35238,0 -0.0861,-1.10917 -0.97432,-2.46482 -3.17659,-4.84809 -2.10848,-6.53047 2.44017,-3.84351 l 2.86376,1.69166 1.86927,-1.69166 c 1.97263,-1.78521 4.93025,-2.09798 10.08679,-1.06667 l 3.125,0.625 0.002,1.625 c 0.002,1.87453 7.34766,9.125 9.24494,9.125 0.69978,0 1.83439,0.9 2.52135,2 0.68696,1.1 1.90437,2 2.70536,2 0.80099,0 1.90658,0.84128 2.45687,1.8695 l 1.00053,1.86951 4.00934,-0.22622 4.00933,-0.22622 1.67451,1.85031 1.67451,1.85031 5.10081,-0.16615 c 2.80545,-0.0914 5.77581,-0.71783 6.60081,-1.39211 0.825,-0.67429 3.20866,-2.17584 5.29703,-3.33678 l 3.79703,-2.11081 4.01146,3.2237 4.01147,3.2237 0.92619,-1.46437 c 0.50941,-0.8054 0.93309,-1.78434 0.94151,-2.17541 0.008,-0.39108 1.00016,-1.62858 2.20387,-2.75 l 2.18819,-2.03896 4.20445,0 4.20445,0 0.57561,-1.5 c 0.31658,-0.825 1.60648,-1.5 2.86644,-1.5 l 2.29084,0 1.25815,-2.01463 1.25816,-2.01463 2.33864,0.58696 2.33863,0.58696 1.73652,-1.73653 1.73653,-1.73653 3.65723,-0.1475 3.65723,-0.1475 -0.29384,-1.6883 -0.29383,-1.6883 1.29383,-0.0406 c 2.23347,-0.0702 7.47286,-5.33657 8.16724,-8.20936 0.36559,-1.5125 1.12541,-2.75 1.68849,-2.75 1.31488,0 10.77708,8.83059 12.08912,11.28217 l 0.99862,1.86594 -2.07481,0.54258 -2.07482,0.54257 0,3.92961 0,3.92961 -3.60272,7.70376 c -1.9815,4.23707 -4.9065,9.63882 -6.5,12.00389 -1.5935,2.36507 -2.90547,4.61507 -2.91548,5 -37.63878,23.6684 -25.18356,10.19983 -103.76782,10.19983 z m 38.60128,-62.88819 c -1.26045,-0.56653 -2.54673,-2.04255 -2.8584,-3.28005 l -0.56669,-2.25 -2.39159,0 -2.39159,0 0,-1.35198 0,-1.35198 9.24882,-0.5992 9.24881,-0.59921 0.92739,0.92739 0.92739,0.92739 1.31106,-1.08808 c 1.84105,-1.52794 4.33653,-0.31702 4.33653,2.10429 0,2.26674 -1.02696,2.60442 -2.73278,0.8986 -1.61125,-1.61125 -3.8771,-0.4517 -5.43192,2.77977 l -1.3353,2.77522 -3,0.56894 c -1.65,0.31292 -4.03128,0.10543 -5.29173,-0.4611 z m 37.64241,-40.85013 c 0.69545,-0.83797 2.92605,-1.80935 4.95689,-2.15863 2.03084,-0.34927 6.15498,-1.47417 9.16477,-2.49977 5.30665,-1.80827 7.02766,-1.82093 7.02766,-0.0517 0,1.74032 -8.72367,4.86638 -15.45689,5.53887 l -6.95689,0.69482 z m -25.3918,-49.74645 c -0.36253,-0.58659 -0.50159,-1.18581 -0.30902,-1.3316 0.19258,-0.14578 1.46277,-1.01584 2.82265,-1.93346 l 2.4725,-1.66841 5.7775,0 c 5.80185,0 6.45852,0.37758 4.90847,2.82232 -1.62055,2.55592 -14.3384,4.26911 -15.6721,2.11115 z m -40.95888,-1.1693 c -4.84327,-1.24611 -5.34266,-1.62532 -3.57728,-2.71638 l 1.3648,-0.84349 2.79819,0.97545 c 1.539,0.5365 3.32941,1.61554 3.97868,2.39787 1.33459,1.60807 1.01189,1.62126 -4.56439,0.18655 z m 193.19945,-11.51414 0.57371,-3.75 -3.02689,2.832 -3.02688,2.83199 -0.71364,-1.15468 -0.71363,-1.15469 2.67044,-5.95055 c 1.46875,-3.2728 2.52802,-6.88501 2.35395,-8.02714 l -0.31651,-2.07658 -2.65773,2.09982 c -1.46175,1.15491 -3.17935,2.09983 -3.81688,2.09983 l -1.15916,0 0.70336,-10.5 c 0.78404,-11.7046 0.54092,-12.21942 -3.06959,-6.5 l -2.52509,4 -2.92844,0 c -1.61064,0 -3.18642,-0.41742 -3.50172,-0.9276 -1.36294,-2.20527 -3.48567,-22.90454 -3.95566,-38.5724 -0.28047,-9.35 -0.9965,-20.375 -1.59119,-24.5 -0.59469,-4.125 -1.96975,-15.6 -3.0557,-25.5 -2.5844,-23.56053 -2.34879,-22.19882 -5.48898,-31.72342 -3.84224,-11.65397 -6.46651,-15.67129 -15.25199,-23.34829 -4.23568,-3.70125 -11.13844,-10.14927 -15.33947,-14.32892 -8.64628,-8.60229 -14.42062,-13.09937 -16.81984,-13.09937 -0.89981,0 -3.39368,-1.8 -5.54192,-4 -2.14824,-2.2 -4.66405,-4 -5.59067,-4 -0.92663,0 -4.54976,-1.34068 -8.05139,-2.97929 -11.56798,-5.41332 -23.41754,-6.4009 -35.76072,-2.98044 l -7.36257,2.04028 -15.11733,0.35868 c -14.90597,0.35366 -18.43132,0.88377 -19.82686,2.98139 -0.39025,0.58657 -2.10042,0.9206 -3.80036,0.74229 -1.69995,-0.17831 -3.73372,0.20935 -4.5195,0.86149 l -1.42867,1.18569 -7.77097,-1.69692 c -4.27403,-0.93331 -10.47096,-2.58976 -13.77096,-3.68101 -5.59772,-1.85105 -10.81786,-2.94878 -21.2787,-4.47463 l -4.2787,-0.6241 -7.7213,4.02336 c -4.24671,2.21285 -9.63343,4.59395 -11.97048,5.29133 l -4.24917,1.26796 -3.80208,5.09196 c -7.28905,9.76194 -9.83302,15.18379 -13.65013,29.09196 -0.90569,3.3 -2.12422,7.35 -2.70784,9 -0.58362,1.65 -1.51,4.8 -2.0586,7 -0.54861,2.2 -1.61247,5.35 -2.36413,7 -0.75166,1.65 -1.66129,6.44129 -2.02139,10.64732 l -0.65473,7.64731 1.62862,2.32519 c 2.13416,3.04694 2.05441,3.88018 -0.37137,3.88018 l -2,0 -0.12958,3.25 c -0.0713,1.7875 -0.26258,22.36377 -0.42512,45.72504 l -0.29553,42.47504 -1.07488,0.35829 c -1.08799,0.36266 -1.54807,-1.6649 -1.20245,-5.2992 0.10413,-1.09496 -0.46725,-2.47094 -1.26973,-3.05772 -0.80248,-0.58679 -1.60388,-2.84092 -1.78088,-5.00917 l -0.32183,-3.94228 -3.40321,-0.32479 -3.40321,-0.32478 -2.59679,1.88007 c -1.42823,1.03404 -4.17179,2.4978 -6.09679,3.25281 -1.924998,0.755 -4.387628,1.96762 -5.472508,2.69471 -1.08487,0.72709 -2.99737,1.32198 -4.25,1.32198 l -2.27749,0 0,-1.34501 c 0,-0.73976 0.9,-2.1595 2,-3.15499 1.1,-0.99549 2,-2.44985 2,-3.23191 0,-1.54183 5.29454,-7.26809 6.72013,-7.26809 2.878278,0 11.279868,-11.84525 11.279868,-15.90329 0,-1.10143 0.54722,-3.20362 1.21604,-4.67153 l 1.21604,-2.66892 -2.96604,-2.39946 c -1.63132,-1.3197 -3.97854,-2.66364 -5.21604,-2.98654 l -2.25,-0.58708 0,-2.3098 c 0,-4.89005 -3.226118,-7.65365 -4.638368,-3.97338 -0.88853,2.31547 -3.95019,1.77688 -5.78076,-1.01691 l -1.64914,-2.51692 -1.90012,1.01692 c -2.744891,1.46901 -5.03161,1.24947 -5.03161,-0.48309 0,-0.825 0.675,-1.5 1.5,-1.5 2.11306,0 1.86288,-2.23337 -0.538955,-4.81144 -2.413413,-2.59049 -3.531145,-2.75124 -4.346993,-0.62518 -0.845806,2.20414 -2.614052,0.79226 -2.614052,-2.08721 l 0,-2.4058 -1.918718,-1.02687 c -1.055295,-0.56478 -2.218853,-2.39337 -2.585684,-4.06354 l -0.666967,-3.03668 -3.537079,3.1056 -3.537079,3.10559 -1.077237,-1.07723 -1.077236,-1.07724 1.2,-1.2 c 0.66,-0.66 1.2,-1.97294 1.2,-2.91764 l 0,-1.71764 3.735952,-1.83236 c 2.054773,-1.0078 4.391294,-3.01941 5.192269,-4.47026 l 1.456317,-2.6379 8.99715,-33.32804 c 5.686002,-76.047818 -12.403521,-20.19607 0.162968,-54.64616 7.879334,-9.73377 28.813802,-31.435786 31.198602,-32.342484 l 2.25674,-0.858012 0.19681,-6.774751 c 0.47951,-16.50575 1.2127,-22.64791 3.29008,-27.561736 0.92935,-2.198279 4.79019,-4.224293 9.76725,-5.125456 l 3.75414,-0.679738 2.18392,-2.95391 c 1.20115,-1.624651 2.9386,-2.953911 3.861,-2.953911 0.9224,0 2.82125,-0.9 4.21967,-2 1.39842,-1.1 3.46828,-2 4.59968,-2 l 2.05708,0 1.07037,-2 c 0.5887,-1.1 1.67614,-2 2.41653,-2 2.03834,0 7.40657,-5.927001 9.34255,-10.315008 l 1.7175,-3.892802 4.51171,-2.254637 4.51171,-2.254637 7.3776,-0.660299 c 4.05769,-0.363165 8.55769,-1.316772 10,-2.119127 2.91087,-1.6193 16.37358,-4.5034896 21.02122,-4.5034896 1.64073,0 3.26331,-0.4533201 3.60574,-1.007378 0.34243,-0.5540579 2.43932,-1.8851254 4.65977,-2.9579277 l 4.03717,-1.9505497 11.54509,0.6187171 11.5451,0.6187171 1.10415,-1.4107894 1.10416,-1.4107894 12.37343,-0.2118459 12.37344,-0.2118459 3.12656,1.3029911 c 1.71962,0.716645 7.62657,1.8925795 13.12657,2.6131876 5.5,0.7206082 12.43295,2.1420929 15.40655,3.1588549 2.9736,1.016762 6.55779,1.8486582 7.96486,1.8486582 1.40707,0 6.17412,1.7590306 10.59345,3.9089576 4.41933,2.149926 11.98368,5.494118 16.80968,7.431537 4.826,1.937419 10.65215,4.903388 12.947,6.591042 2.29486,1.687655 4.98872,3.068463 5.98636,3.068463 3.43316,0 23.3031,9.546866 27.61115,13.266267 0.92452,0.798199 4.15595,2.614036 7.18095,4.035194 3.025,1.421158 6.78206,3.674649 8.34903,5.007758 l 2.84903,2.423836 -0.34903,1.598711 -0.34903,1.598712 -4.74705,-2.965239 -4.74705,-2.965239 -3.25295,0.01531 -3.25295,0.01531 1.30279,0.826328 c 0.71653,0.45448 1.18987,1.235089 1.05187,1.734687 -0.54466,1.971806 1.28141,5.006054 4.1576,6.908359 1.66314,1.1 4.38697,3.6875 6.05294,5.75 1.66598,2.0625 3.66701,3.75 4.44674,3.75 0.77973,0 1.90287,0.906569 2.49587,2.014598 67.29556,2.199027 13.98602,109.985406 53.01176,109.985406 l 1.74022,2.1707 c 0.95711,1.19389 2.75271,3.15799 3.99021,4.36468 1.2375,1.20668 2.25,2.63263 2.25,3.16878 0,1.03462 -4.27542,3.28408 -6.29705,3.31312 -4.33229,1.54445 -8.89595,16.82748 -8.18204,20.07792 1.19177,3.6427 -0.0906,2.9048 -3.40627,2.9048 -12.71889,14.46073 2.81282,43.97195 -20.09501,45.5 l -0.01,1.56291 c -0.005,0.8596 1.34019,2.85629 2.99019,4.43709 3.32228,3.18295 3.7613,4.5 1.5,4.5 l -1.5,0 -0.0766,2.75 c -0.0421,1.5125 -0.25655,5.225 -0.47652,8.25 l -0.39995,5.5 -2.51279,4.89836 c -1.38203,2.6941 -3.3232,5.466 -4.3137,6.15977 -2.09769,1.46928 -11.60797,16.77322 -12.70313,20.44187 -1.44469,4.83954 -4.77288,12 -5.57761,12 -0.4477,0 -0.55582,-1.6875 -0.24028,-3.75 z M 123.1212,55.772725 c -1.01652,-1.016515 -1.85525,0.513892 -1.02122,1.863382 l 0.78322,1.267277 0.42108,-1.263246 c 0.2316,-0.694785 0.14921,-1.535121 -0.18308,-1.867413 z m 58.61262,203.168465 c -3.17119,-2.2212 -5.21679,-6.68727 -5.21679,-11.38964 l 0,-4.04966 -2.68428,0 c -4.26001,0 -10.95912,3.78798 -15.18053,8.58375 l -3.88733,4.41625 -1.92393,0 c -1.05816,0 -2.45279,-0.52886 -3.09918,-1.17525 l -1.17526,-1.17526 4.17612,-3.57474 c 5.39872,-4.62128 15.68822,-9.002 27.02439,-11.50553 3.9185,-0.86538 3.4196,-2.0244 -1.85404,-4.30721 l -4.60404,-1.99297 2.64494,-0.66384 c 3.53429,-0.88705 2.54321,-2.12099 -2.78017,-3.46143 -2.40753,-0.60622 -4.94528,-1.78657 -5.63945,-2.62299 -0.69417,-0.83643 -1.87166,-1.52078 -2.61663,-1.52078 -0.74498,0 -2.1168,-1.1634 -3.04849,-2.58534 l -1.69398,-2.58535 1.42093,-0.89934 c 3.44979,-2.18346 19.46495,-0.22356 26.18427,3.20437 8.21441,4.19068 14.2605,11.77589 10.48666,13.15618 l -1.25,0.45719 4,3.62536 c 2.2,1.99395 4.30297,3.62572 4.67327,3.62615 1.36565,0.002 6.82673,5.22274 6.82673,6.5268 l 0,1.34824 -3.5,-0.56797 -3.5,-0.56797 0,1.57182 c 0,0.8645 0.45,1.84994 1,2.18986 0.55,0.33992 1,1.34492 1,2.23333 l 0,1.6153 -2.31445,-2.17432 c -3.03987,-2.8558 -3.14045,-2.83154 -7.57077,1.82569 l -3.80511,4 -4.93233,0 -4.93233,0 z m 1.61196,-10.77051 0.34918,-1.83121 -2.32875,0.33121 -2.32875,0.33121 -0.34918,1.83121 -0.34918,1.83121 2.32875,-0.33121 2.32875,-0.33121 z m 134.46984,4.70707 c -1.76078,-0.86823 -3.95876,-2.73446 -4.88441,-4.14718 l -1.683,-2.56858 1.13441,-1.81648 c 0.62393,-0.99907 1.13441,-2.49759 1.13441,-3.33005 l 0,-1.51357 -1.87756,0 c -1.03265,0 -2.45977,-0.70153 -3.17136,-1.55895 l -1.29381,-1.55894 -4.07864,0.68097 c -2.24324,0.37453 -6.07903,1.61693 -8.52396,2.76088 -2.44493,1.14396 -5.51621,1.9913 -6.82506,1.88297 -3.28435,-0.27182 -5.93939,1.25952 -11.47961,6.62107 l -4.75,4.59682 0,-1.77473 c 0,-0.97609 3.1509,-4.99506 7.00201,-8.93104 3.8511,-3.93598 7.25642,-7.95794 7.56738,-8.93769 l 0.56539,-1.78136 -5.4604,0 -5.4604,0 -0.60341,-1.57244 c -0.84043,-2.19013 1.09831,-5.42756 3.2503,-5.42756 0.98478,0 2.88144,-1.17501 4.21482,-2.61113 4.16694,-4.48803 15.12065,-9.16682 23.42431,-10.0055 1.65,-0.16666 4.125,-0.43359 5.5,-0.59319 l 2.5,-0.29018 0.10262,3.8567 0.10262,3.8567 -5.35262,3.42403 c -2.94394,1.88321 -5.35262,4.09645 -5.35262,4.9183 l 0,1.49427 3.08595,0.61719 c 1.69727,0.33945 3.32041,1.2282 3.60699,1.975 l 0.52104,1.35781 3.82791,0 c 2.10535,0 5.05737,-0.46744 6.56004,-1.03875 l 2.73213,-1.03876 0.58297,0.83588 c 0.71076,1.01911 11.42515,6.25775 12.68264,6.20099 0.49518,-0.0224 -0.67467,-1.42517 -2.59967,-3.11738 l -3.5,-3.07674 2.93901,0.68387 c 7.72887,1.79841 15.2143,13.17498 10.56099,16.05089 -0.55,0.33992 -1,1.68992 -1,3 0,3.61112 -1.57262,3.90368 -8.0209,1.49218 l -5.89406,-2.20423 -2.67738,2.10603 c -3.18048,2.50176 -4.83521,2.5893 -9.10907,0.48188 z M 82.267032,251.91903 c -1.041968,-1.04263 -0.911468,-5.6134 0.21094,-7.38818 1.552656,-2.4551 2.241275,-0.45596 1.365711,3.96483 -0.454658,2.2956 -1.164151,3.83611 -1.576651,3.42335 z m 65.249998,-4.08536 c 0,-2.75358 8.22808,-11.33178 10.86927,-11.33178 l 1.48701,0 -3.65523,2.75 c -2.01038,1.5125 -4.79054,4.29993 -6.17814,6.19428 -1.3876,1.89435 -2.52291,2.96873 -2.52291,2.3875 z m -19.27731,-17.37933 c 0.29449,-1.12616 1.98234,-3.15116 3.75077,-4.5 5.63301,-4.29651 7.28881,-2.66482 3.27654,3.22884 l -2.25,3.30504 -2.65638,0.007 -2.65638,0.007 0.53545,-2.04755 z M 237.26703,-1.1603883 c 0.6875,-0.2774123 1.8125,-0.2774123 2.5,0 0.6875,0.27741228 0.125,0.50438596 -1.25,0.50438596 -1.375,0 -1.9375,-0.22697368 -1.25,-0.50438596 z"
     style="fill:#2a1712" />
  <path
     sodipodi:nodetypes="ccccsscccccscccsscccsccssscsscccsscssscccssssscssssssssssscsscssccscccsscccsscccssscccccccccsscccccsscsscccccccsscsccssscccccssccccccscccsscccccssssscsscccssssscsscccssscccccccssssscccccssscsscsscssssscccsscccssscsscccsscccccssssscccccccsscsssscccssscccccccsscssssscccsssscsscscsscccccccsscccccccsssscccccsscssssscccsscsscsscccssscccsscccsscscscccccccccccccccssssccccccccsssccccccccccsscsccsccccccccccccccsscssssccccscsscccccssscssssssssscsscsscsssscssscssccsscssscccssscsssscccccsssssssscssscssssssscscssssssscsscscsscsscsssssssssssssscssscscsssssscccsscsscccccccccssscccsscccccccsssccsssccccsscssscsscssscccsscccssscsscccccsssssccscccccccccccccsscccsscsssscccccssscssssscccccccscsscsscscssscsssssssssscccsccccssccssscsssscsssssssssscs"
     inkscape:connector-curvature="0"
     id="path3069"
     d="m 211.75044,491.67614 -1.61671,-3.24077 c -2.36936,-3.07059 0.0308,-7.9121 -3.17283,-9.70495 l -1.55613,-0.87086 1.80613,-3.20678 c 1.81999,-3.2314 4.60396,-4.62081 7.97704,-3.98113 l 1.82909,0.34687 0.30437,3.64117 0.30438,3.64116 3.22645,-0.0915 c -7.8144,0.84148 71.41785,-4.02115 69.6648,-5.20751 -0.56794,-0.35101 -0.74875,-1.09752 -0.40179,-1.65891 l 0.63083,-1.0207 3.13548,0.58565 3.13548,0.58566 1.88392,-2.81102 c 2.05786,-3.07056 5.08527,-4.63814 10.8731,-5.63006 l 3.75702,-0.64388 c 0.66208,1.7414 1.32416,3.48281 1.98625,5.22421 -2.45806,3.05448 -1.32839,7.49236 -3.46849,10.42792 -0.8075,1.06762 -1.4825,2.70126 -1.5,3.63031 -0.0412,2.18693 -7.53022,10.90205 -10.91532,12.70232 -13.39811,0.40568 -90.16771,11.36119 -87.88307,-2.7172 z M 415.32562,310.31091 c -0.10528,-0.71996 -0.21778,-5.99209 -0.25,-11.71585 l -0.0586,-10.40682 -3.10616,-1.09318 c -1.70839,-0.60124 -4.73798,-2.83522 -6.73241,-4.9644 l -3.62625,-3.87123 -2.16665,0.56659 -2.16665,0.56659 -1.92352,-2.44536 c -1.05793,-1.34495 -2.56585,-2.44536 -3.35093,-2.44536 -0.78508,0 -1.45234,-0.3375 -1.4828,-0.75 -0.0305,-0.4125 -0.27387,-5.7 -0.5409,-11.75 -0.26703,-6.05 -0.9171,-13.5875 -1.44461,-16.75 -0.52751,-3.1625 -1.44195,-8.5625 -2.03208,-12 l -1.07297,-6.25 0.5241,-9.26215 0.52411,-9.26215 -1.44509,-8.21923 c -0.79479,-4.52058 -1.20839,-8.96497 -0.91911,-9.87642 0.28928,-0.91145 -0.35901,-3.16983 -1.44065,-5.01862 -1.08164,-1.84879 -2.95415,-6.06143 -4.16114,-9.36143 -1.20699,-3.3 -2.81142,-6.71043 -3.5654,-7.57874 -0.75399,-0.86831 -1.37525,-1.99331 -1.38059,-2.5 -0.005,-0.50669 -1.53217,-2.83622 -3.39296,-5.17673 -1.86079,-2.34051 -3.6379,-5.27004 -3.94913,-6.51008 -0.31123,-1.24003 -1.9438,-3.06856 -3.62793,-4.0634 -1.68413,-0.99484 -6.22468,-4.92781 -10.09011,-8.73993 -3.86543,-3.81211 -7.62034,-6.93112 -8.34425,-6.93112 -0.72391,0 -2.46036,-0.9 -3.85878,-2 -1.39842,-1.1 -2.83914,-2 -3.20158,-2 -0.36245,0 -2.09147,-1.06592 -3.84227,-2.3687 -1.7508,-1.30279 -4.53122,-2.68908 -6.17871,-3.08065 -1.64749,-0.39158 -4.86676,-2.24536 -7.15393,-4.11952 -6.67926,-5.47316 -17.83962,-8.55213 -30.88386,-8.52038 l -8.03321,0.0196 -6.41072,1.64235 c -3.52589,0.90329 -10.93594,1.94931 -16.46678,2.32449 l -10.05607,0.68214 -4,-1.4052 c -2.2,-0.77286 -6.24465,-1.49026 -8.98811,-1.59422 l -4.98812,-0.18901 -2.76188,1.37781 c -1.51904,0.75776 -2.76189,1.7905 -2.76189,2.29494 l 0,0.91716 -13.3746,-0.26388 -13.3746,-0.26389 -1.3754,-1.12937 c -0.75647,-0.62115 -4.80709,-1.76544 -9.00137,-2.54287 l -7.62597,-1.41349 -5.7536,0.6333 -5.7536,0.6333 -1.19998,1.64107 c -0.65999,0.90259 -4.39125,2.82396 -8.29169,4.26972 l -7.09171,2.62865 -4.00655,3.42946 -4.00655,3.42945 -4.44723,8.23387 c -2.44598,4.52863 -4.97648,9.88537 -5.62334,11.90388 -0.64686,2.0185 -1.77336,4.16568 -2.50333,4.77149 l -1.32721,1.10149 -2.78447,-1.05866 -2.78448,-1.05865 -0.88503,0.88503 -0.88504,0.88504 1.24102,2.72374 1.24102,2.72374 -1.1704,0.72334 -1.1704,0.72335 0.13673,3.63717 c 0.0752,2.00045 -0.54825,4.6826 -1.38546,5.96035 l -1.5222,2.32317 0.46555,3.172 0.46555,3.172 -1.99244,1.24431 -1.99244,1.2443 0.5224,5.76115 c 0.28732,3.16863 0.24177,6.49246 -0.10122,7.38628 l -0.62362,1.62512 -3.39944,-2.59288 c -1.8697,-1.42608 -4.63261,-4.45632 -6.13982,-6.73387 l -2.74037,-4.14098 1.1535,-1.84705 1.1535,-1.84705 -1.1261,-2.10415 -1.1261,-2.10414 1.26282,-0.78046 1.26282,-0.78047 -1.1166,-2.84236 c -0.61414,-1.5633 -1.24845,-4.86736 -1.40958,-7.34236 l -0.29297,-4.5 2.75,-0.31642 c 3.09503,-0.35613 3.27766,-0.008 1.5,2.8605 l -1.25,2.01695 1.5,0.97521 c 2.53571,1.64858 5.37331,0.61449 7.48426,-2.72743 1.10866,-1.75516 2.63399,-3.33016 3.38963,-3.5 l 1.37389,-0.30881 0.16716,-13.24562 0.16717,-13.24562 -2.05811,-2.58113 -2.05812,-2.58112 -0.15044,9.32674 c -0.0827,5.12971 -0.55415,10.67675 -1.04757,12.32675 l -0.89714,3 -2.87817,1.39697 -2.87816,1.39698 -2.5572,-1.46547 -2.5572,-1.46546 0.16521,-1.83943 c 0.0909,-1.01168 -0.27628,-3.00064 -0.81588,-4.41989 l -0.9811,-2.58047 -1.87207,2.48186 -1.872068,2.48186 -0.47551,-1.49348 c -0.26153,-0.82141 -0.72035,-2.91672 -1.0196,-4.65625 l -0.54409,-3.16278 1.45755,-1.20967 1.45756,-1.20966 0,-4.37755 0,-4.37756 -1.03138,0 c -0.56727,0 -1.29041,0.675 -1.60699,1.5 -0.31659,0.825 -0.97746,1.5 -1.46862,1.5 -1.48411,0 -1.00148,-2.83992 0.63861,-3.75776 0.8424,-0.47143 1.80431,-2.53747 2.13759,-4.59122 l 0.60595,-3.73407 2.658438,-2.84587 c 1.46214,-1.56523 3.53773,-3.02001 4.61242,-3.23284 l 1.95398,-0.38698 0,-3.47563 0,-3.47563 1.97224,-2.25 c 1.08473,-1.2375 2.54723,-2.25 3.25,-2.25 0.70277,0 1.27776,-0.690828 1.27776,-1.535178 0,-4.929225 4.88078,-7.778594 8.55887,-4.996623 1.06762,0.807508 2.95363,1.482508 4.19113,1.5 l 2.25,0.0318 0,-1.639757 c 0,-0.901867 -0.7875,-2.221573 -1.75,-2.93268 l -1.75,-1.292922 1.17868,-1.196001 1.17868,-1.196001 2.70618,2.128681 c 1.4884,1.170774 3.09549,2.12868 3.57132,2.12868 1.87111,0 0.71557,-2.734462 -2.00576,-4.746431 l -2.8709,-2.122548 -0.53035,-2.774369 -0.53036,-2.774369 1.80225,-4.541142 1.80225,-4.541141 1.599,0.293837 1.59901,0.293837 0,-2.467112 c 0,-1.356911 1.18099,-3.870643 2.62443,-5.586072 3.41922,-4.063505 2.24022,-5.076615 -2.63956,-2.26817 -4.53766,2.611545 -6.54882,2.812396 -7.3465,0.73368 -0.9034,-2.35422 0.25863,-4.308389 6.00841,-10.104301 l 5.35275,-5.395699 2.63556,0 2.63557,0 2.31692,-2.5 2.31692,-2.5 2.99806,0 c 1.64893,0 3.35792,-0.6128 3.79775,-1.361778 0.43983,-0.748978 2.86802,-2.268077 5.39598,-3.375775 l 4.59628,-2.013996 1.90372,1.061001 c 1.04704,0.583551 2.55862,1.712918 3.35907,2.509704 l 1.45535,1.448701 0.41653,-1.249583 c 0.22909,-0.68727 -0.13636,-1.591288 -0.81212,-2.008928 l -1.22865,-0.759346 1.15057,-0.71109 c 0.63281,-0.391099 1.69336,-0.283123 2.35676,0.239948 0.66341,0.523071 3.15363,1.198676 5.53382,1.501344 4.34598,0.552642 8.32841,3.10001 8.02149,5.130964 -0.23966,1.585881 1.22171,4.588834 2.23313,4.588834 l 0.86826,0 -0.9323,-2.452134 -0.9323,-2.452134 1.48483,0.569783 c 0.81666,0.313381 1.93816,1.416841 2.49223,2.452134 l 1.00741,1.882351 2.21481,0.01531 2.21482,0.01531 -1.5,0.969374 c -0.825,0.533156 -2.5125,0.976265 -3.75,0.984687 -2.13317,0.01452 -2.41207,0.353428 -2.65,3.220204 l -0.1,1.204892 5,0.265275 c 2.75,0.145901 8.08212,0.544072 11.84916,0.884825 l 6.84916,0.619551 -0.63934,-2.910895 -0.63934,-2.910895 2.58723,-1.178822 c 1.42298,-0.648352 3.49262,-1.178822 4.5992,-1.178822 l 2.01196,0 -0.61803,-1 -0.61803,-1 -9.2192,0 -9.21919,0 -7.30328,-3.5 c -4.0168,-1.925 -7.84148,-3.5 -8.49928,-3.5 -0.6578,0 -2.30402,-0.776082 -3.65826,-1.724627 -1.35423,-0.948545 -3.43638,-1.596972 -4.62699,-1.44095 -2.64468,0.346567 -3.93564,-1.430799 -2.39104,-3.291926 l 1.13691,-1.369893 -2.30082,-2.151235 -2.30082,-2.151234 1.75,-0.984757 1.75,-0.984758 0,-2.45031 0,-2.45031 4.81634,0 c 2.64899,0 7.41655,-0.480676 10.59459,-1.068168 l 5.77826,-1.068168 5.1554,1.192256 c 2.83548,0.655741 6.4627,1.669918 8.06049,2.253727 1.5978,0.583808 6.7728,1.182793 11.5,1.331078 4.72721,0.148285 10.81459,0.402284 13.52752,0.564442 l 4.9326,0.294833 2.30774,-1.814985 2.30775,-1.814984 1.17418,0.725683 c 0.6458,0.399125 3.91264,0.884065 7.25965,1.077644 7.95234,0.459934 9.36665,0.699807 13.83548,2.346556 l 3.75,1.381863 0,2.299111 0,2.299112 2.49712,0 2.49712,0 3.94683,3.565726 3.94683,3.565727 3.05605,0.386765 c 3.37224,0.426781 3.52656,0.229458 2.02087,-2.583959 l -1.03519,-1.934259 -2.21481,-0.0318 c -2.19634,-0.03154 -5.71482,-2.088057 -5.71482,-3.34026 0,-1.043563 8.39916,0.495557 9.5,1.740846 0.55,0.622168 2.788,2.031214 4.97333,3.131214 2.18534,1.1 5.43421,3.27215 7.21972,4.827 l 3.24638,2.827 2.05597,-0.65254 2.05597,-0.65254 1.04419,2.995365 c 1.10634,3.173656 3.41864,4.750765 4.47038,3.049028 0.34649,-0.560637 -0.0891,-1.813917 -0.96798,-2.785067 -0.87888,-0.97115 -1.59796,-3.109449 -1.59796,-4.751774 l 0,-2.986047 -3.41454,-1.628283 c -1.878,-0.895555 -3.70833,-2.5539 -4.06739,-3.685212 l -0.65285,-2.05693 -1.87359,0 c -1.03048,0 -2.16887,-0.477757 -2.52975,-1.061683 -0.36089,-0.583926 -1.73745,-1.472788 -3.05902,-1.975249 -1.32157,-0.502462 -2.40286,-1.390203 -2.40286,-1.97276 l 0,-1.059194 5.25,0.649236 5.25,0.649235 1.17964,1.480116 1.17964,1.480116 2.95518,-0.649066 2.95518,-0.649066 2.11518,2.689016 c 2.85022,3.623465 2.66457,4.479178 -0.82053,3.782158 l -2.9357,-0.587141 0.55234,2.112141 0.55233,2.112141 3.77638,0 3.77638,0 0.6311,-1.644618 0.6311,-1.644618 -1.52411,-1.684122 c -1.9247,-2.126766 -1.93186,-3.026642 -0.0241,-3.026642 0.825,0 1.5,-0.436297 1.5,-0.969549 0,-1.617852 7.2794,-0.823021 10.87356,1.187274 l 3.37356,1.886908 2.80691,-0.6165 2.8069,-0.616499 1.14623,2.141742 1.14622,2.141742 1.55226,-0.595657 c 3.21621,-1.234175 10.15054,2.500942 7.04436,3.794384 l -1.25,0.520513 1.94113,1.562821 c 1.06762,0.859551 2.76123,1.562821 3.76357,1.562821 1.00234,0 2.60383,0.39476 3.55887,0.877244 0.95504,0.482485 3.53643,1.443572 5.73643,2.13575 2.2,0.692178 5.23825,2.128594 6.75166,3.192035 l 2.75167,1.933529 -0.61333,2.443707 -0.61333,2.443707 1.21215,1.460552 c 0.66668,0.803303 2.76862,1.752547 4.67097,2.109431 l 3.45883,0.64888 -2.05931,2.192034 c -2.77214,2.950803 -2.65556,3.21217 1.74668,3.916117 l 3.806,0.608603 7.05122,7.390234 c 3.87817,4.064629 7.54206,8.798272 8.14199,10.519206 l 1.09076,3.128971 -1.96703,0 -1.96703,0 0.66298,2.75 c 0.83029,3.443955 5.93516,13.73591 8.60271,17.343958 3.1847,4.30754 0.88392,6.47193 -3.15557,2.9685 l -2.234,-1.93753 -1.46408,0.56182 -1.46408,0.56182 1.92784,1.35031 c 1.06032,0.74267 2.13049,2.731 2.37816,4.41851 l 0.45032,3.0682 -3.06347,-0.67285 -3.06347,-0.67285 1.346,1.62183 c 0.7403,0.89201 1.45901,3.08804 1.59713,4.88006 l 0.25112,3.25822 2.1922,0.32728 c 1.20572,0.18 3.40318,-0.0924 4.88326,-0.60539 1.48008,-0.51296 4.71605,-0.66024 7.19105,-0.32728 l 4.5,0.60539 0.10163,2.80193 0.10163,2.80192 2.39837,1.68484 2.39837,1.68483 -2.98779,0.52095 -2.98779,0.52094 -0.2912,1.51211 -0.29121,1.51212 3.02899,1.14331 3.029,1.14332 0,2.08687 0,2.08686 -2,0 -2,0 0,2 c 0,1.1 -0.45,2 -1,2 -0.55,0 -1,0.675 -1,1.5 0,1.81718 1.62122,1.9877 2.37698,0.25 0.29901,-0.6875 0.28626,-0.007 -0.0283,1.51299 l -0.57198,2.76298 1.24434,1.49935 1.24435,1.49934 1.42184,-1.18003 1.42185,-1.18002 2.06683,2.06683 2.06683,2.06683 -0.68037,1.10086 c -0.37421,0.60548 -2.11632,1.14573 -3.87136,1.20055 -4.55532,0.1423 -7.97406,1.24956 -8.4722,2.74397 l -0.42949,1.28849 2.03616,0.53246 2.03616,0.53247 c -2.06748,3.62113 1.11619,5.2793 3.58598,7.90827 l -1.15958,0.71666 -1.15958,0.71666 0.58526,4.36338 0.58525,4.36337 1.90709,0.49872 1.90709,0.49871 -0.48912,1.27463 c -0.64895,1.69113 2.50734,4.46253 5.0823,4.46253 2.14285,0 5.00965,2.61739 3.98695,3.64009 -0.32547,0.32546 -2.07709,0.91502 -3.8925,1.31013 l -3.30075,0.71839 0.37918,1.41569 c 0.20854,0.77864 0.60526,3.57366 0.88159,6.21117 l 0.50243,4.79547 -2.16509,2.30463 -2.16509,2.30463 -0.0932,4.64475 -0.0932,4.64475 1.26251,1.52123 1.26251,1.52123 -0.61289,5.23392 -0.6129,5.23392 2.9929,1.71255 2.9929,1.71256 1.65781,-0.63616 1.65782,-0.63617 -0.67361,1.7554 c -0.37058,0.96547 -0.6737,1.92248 -0.6737,2.12669 0,0.20421 -1.65903,1.15856 -3.68673,2.12076 l -3.68672,1.74947 3.11018,1.26908 c 1.71059,0.698 3.39618,1.73185 3.74574,2.29745 0.34956,0.5656 2.03401,1.02837 3.74321,1.02837 4.49418,0 2.73085,1.08596 -3.94121,2.42724 l -5.78447,1.16284 0,2.95496 0,2.95496 -1.26861,-0.2562 c -0.69774,-0.14092 -1.7722,0.84905 -2.3877,2.19993 l -1.11909,2.45613 1.55487,3.30007 c 0.85518,1.81504 1.86204,4.95991 2.23746,6.9886 l 0.68259,3.68853 -1.57128,2.24332 -1.57129,2.24332 1.00314,1.20871 1.00314,1.20871 -3.6297,10.84877 c -4.73207,14.14363 -8.02055,20.31235 -8.62494,16.17913 z m -313.80859,-171.36804 0,-1.55901 -1,0.61803 c -0.549998,0.33992 -0.999998,1.04148 -0.999998,1.55902 0,0.51754 0.45,0.94098 0.999998,0.94098 0.55,0 1,-0.70156 1,-1.55902 z m 103,-28.24098 c 0,-1.40535 -2.34088,-3.2 -4.17397,-3.2 -0.97568,0 -5.20963,-1.36479 -9.40877,-3.03287 -4.19914,-1.66807 -8.37335,-2.81136 -9.27603,-2.54063 -2.08765,0.62612 -4.79238,-1.39124 -5.29779,-3.951431 l -0.3899,-1.975067 -3.97677,0.209764 C 160.89133,96.79728 151.75703,96.713065 149.52487,96.0045 l -2.49216,-0.791099 1.25942,1.517497 c 0.69267,0.834624 0.9979,2.198974 0.67828,3.031894 l -0.58113,1.514388 8.57272,1.2169 c 4.71499,0.66929 10.40243,1.31032 12.63876,1.4245 2.23632,0.11418 4.36984,0.67692 4.74115,1.25054 1.08478,1.6758 7.36497,3.35903 17.87752,4.79157 12.47378,1.6998 12.2976,1.68918 12.2976,0.7412 z m 177.61501,-1.66482 c -1.92998,-2.94552 -2.08754,-4.15226 -0.36501,-2.79551 0.6875,0.5415 2.54183,1.29381 4.12074,1.6718 l 2.87075,0.68724 -0.44755,-3.04935 c -0.51038,-3.47744 -0.16351,-3.69379 2.31946,-1.44674 0.97398,0.88144 2.28291,1.43194 2.90873,1.22334 l 1.13786,-0.37929 -4.50119,-5.973328 c -2.47565,-3.285339 -5.29602,-6.845215 -6.26749,-7.91084 l -1.76631,-1.9375 1.1875,-0.395833 c 2.11705,-0.705683 1.26803,-1.985256 -2.68404,-4.04519 -2.12934,-1.109876 -5.16684,-3.292812 -6.75,-4.850967 l -2.87846,-2.83301 -0.30723,2.155955 -0.30722,2.155955 -2.4633,0.618247 c -1.35481,0.340036 -3.36336,0.136546 -4.46344,-0.452199 -2.31559,-1.239267 -3.95881,-0.534647 -3.95881,1.697555 l 0,1.557478 -6.5,-0.413888 c -3.575,-0.227639 -6.5,-0.05506 -6.5,0.383504 0,0.438566 0.49037,0.797393 1.08971,0.797393 0.59934,0 1.91032,1.0125 2.91329,2.25 l 1.82358,2.25 -1.03574,1.25 -1.03573,1.25 2.37245,0.0048 2.37244,0.0048 3.80565,3.495223 c 2.09311,1.922327 4.36496,3.495177 5.04856,3.495177 0.68359,0 3.11616,1.799998 5.40571,3.999998 2.28954,2.2 4.63019,4 5.20144,4 0.57125,0 1.03864,0.45 1.03864,1 0,0.55 0.87344,1 1.94098,1 1.06754,0 2.2191,0.45 2.55902,1 0.33992,0.55 1.31823,1 2.17403,1 l 1.55599,0 z m -20.61501,-7.4186 c 0,-0.48589 -1.12894,-1.09924 -2.50874,-1.363 l -2.50875,-0.479578 1.13119,1.362998 c 1.26366,1.52261 3.8863,1.84625 3.8863,0.47958 z m -219.5,-2.116578 c -0.33992,-0.55 -1.06803,-1 -1.61803,-1 -0.55,0 -0.72189,0.45 -0.38197,1 0.33992,0.549998 1.06803,0.999998 1.61803,0.999998 0.55,0 0.72189,-0.45 0.38197,-0.999998 z m 41.22917,-2.604167 c -0.3323,-0.332291 -1.1948,-0.367818 -1.91667,-0.07895 l -1.3125,0.525219 1.91667,0.07895 c 1.05416,0.04342 1.64479,-0.192928 1.3125,-0.525219 z m 164.27083,-8.395833 c -1.00274,-1.873637 -3,-2.779223 -3,-1.360243 0,0.566192 3.04778,3.246205 3.78518,3.32844 0.15685,0.01749 -0.19648,-0.868197 -0.78518,-1.968197 z m -193,-11 1.5,-0.969374 -2.69098,-0.01531 c -1.48004,-0.0084 -2.9691,0.434684 -3.30902,0.984684 l -0.61803,1 1.80901,-0.01531 c 0.99496,-0.0084 2.48402,-0.451534 3.30902,-0.98469 z m 10,-0.383369 c 0,-1.834943 -2.98232,-2.537241 -6.01322,-1.416036 l -2.43864,0.902109 1.47593,0.933335 c 0.81176,0.513335 2.71343,0.940226 4.22593,0.948648 l 2.75,0.01531 z m 29,-13.116631 c 0,-0.825 -0.45,-1.5 -1,-1.5 -0.55,0 -1,0.675 -1,1.5 0,0.825 0.45,1.5 1,1.5 0.55,0 1,-0.675 1,-1.5 z m -37,-5.440983 c 0,-1.17986 -1.95035,-2.441996 -2.66667,-1.725684 -0.71631,0.716313 0.54583,2.666667 1.72569,2.666667 0.51754,0 0.94098,-0.423442 0.94098,-0.940983 z m -6,-2.590402 c 0,-1.513083 -2.63652,-3.165428 -3.56667,-2.235282 -0.26422,0.264226 -0.19667,1.219818 0.15012,2.123539 0.79561,2.073328 3.41655,2.159049 3.41655,0.111743 z m -6.63837,-0.968615 c -0.31659,-0.825 -1.20246,-1.5 -1.96862,-1.5 -1.73208,0 -1.83337,1.655645 -0.14301,2.337719 2.20805,0.890968 2.70008,0.695771 2.11163,-0.837719 z m 75.4467,-0.575 c -0.19708,-0.59125 -0.78583,-1.075 -1.30833,-1.075 -0.5225,0 -1.11125,0.48375 -1.30833,1.075 -0.19709,0.59125 0.39166,1.075 1.30833,1.075 0.91667,0 1.50542,-0.48375 1.30833,-1.075 z m -73.80833,-3.925 c 0,-0.55 -0.19844,-1 -0.44098,-1 -0.24254,0 -0.7191,0.45 -1.05902,1 -0.33992,0.55 -0.14148,1 0.44098,1 0.58246,0 1.05902,-0.45 1.05902,-1 z m 103.35,-9 -0.6,-3 2.06598,0 c 1.13629,0 2.36504,0.483875 2.73054,1.075277 l 0.66456,1.075277 1.71148,-1.825277 c 0.94131,-1.003902 4.38132,-2.697672 7.64446,-3.763932 3.26314,-1.06626 6.05607,-2.014352 6.20652,-2.106871 0.15044,-0.09252 -0.018,-0.927906 -0.37428,-1.856414 l -0.64783,-1.688195 -1.40298,2.003042 -1.40299,2.003043 -4.98232,-2.937682 -4.98232,-2.937682 -6.18792,-0.996535 -6.18792,-0.996536 -1.63123,1.476242 c -0.89718,0.811934 -2.31355,1.476243 -3.1475,1.476243 -0.83395,0 -2.31145,0.878663 -3.28334,1.952585 l -1.76706,1.952584 -3.04342,-0.608683 -3.04341,-0.608682 0.71451,1.156098 c 0.39298,0.635854 1.63008,1.156098 2.74911,1.156098 l 2.0346,0 0.53724,2.054417 0.53724,2.054417 2.61914,-0.304417 2.61914,-0.304417 9.2e-4,2 9.2e-4,2 3.2006,1.034848 c 1.76032,0.569166 3.52241,1.356666 3.91574,1.75 0.39333,0.393333 1.3039,0.715152 2.02349,0.715152 l 1.30833,0 z m -9.76705,-8.865785 c -0.43077,-0.697003 -0.51316,-1.537338 -0.18309,-1.867413 0.89497,-0.894961 1.87077,0.421303 1.38739,1.871444 l -0.42108,1.263246 z m 64.41705,7.357397 0,-1.430102 -4.71749,0.371707 c -6.33263,0.49897 -6.52034,2.014543 -0.2821,2.277639 l 4.99959,0.210857 z m 26,-11.991612 c 0,-0.825 -0.7301,-1.5 -1.62244,-1.5 l -1.62245,0 1.24489,1.5 c 0.68469,0.825 1.41479,1.5 1.62244,1.5 0.20766,0 0.37756,-0.675 0.37756,-1.5 z M 105.46365,281.05189 c -1.4029,-1.40791 -1.14711,-5.33221 0.4074,-6.25031 0.7447,-0.43983 1.88554,-1.81219 2.53518,-3.04969 l 1.18117,-2.25 2.3498,0 2.34981,0 1.69099,2.58077 c 0.93004,1.41943 1.93376,4.07684 2.23049,5.90536 l 0.53951,3.32458 -6.16887,0.34465 -6.16887,0.34464 z m 77.65875,-26.08748 c -2.08729,-2.08729 -2.02511,-2.71929 0.4176,-4.24479 l 2.02297,-1.26337 -1.02078,-1.90734 c -0.56142,-1.04904 -2.03426,-2.05127 -3.27297,-2.22718 l -2.25219,-0.31984 0,-1.5 0,-1.5 3.5,-0.86061 3.5,-0.8606 4.24593,1.14805 c 5.94854,1.60842 11.37545,8.07316 6.77712,8.07316 -0.81232,0 -2.20257,1.10745 -3.08946,2.46101 -0.88688,1.35355 -2.58475,2.73926 -3.77305,3.07934 -1.1883,0.34009 -2.90062,0.82291 -3.80517,1.07294 -0.90454,0.25003 -2.36704,-0.26782 -3.25,-1.15077 z m 136.39463,-6.44918 c -0.825,-0.47797 -2.30899,-1.12063 -3.29776,-1.42813 l -1.79776,-0.5591 0.65597,-3.49666 0.65598,-3.49666 -2.85821,-1.0911 -2.85822,-1.0911 1.94113,-1.42529 1.94113,-1.4253 4.55887,0.002 4.55887,0.002 3.44917,1.74844 3.44917,1.74845 0.71882,2.76673 0.71882,2.76673 -2.79681,1.44628 c -1.53824,0.79546 -3.06222,2.13793 -3.3866,2.98327 -0.64166,1.67213 -3.27396,1.92841 -5.65257,0.55033 z m -203,-4.44076 c 0,-0.78508 -1.2375,-2.39554 -2.75,-3.57879 -1.5125,-1.18326 -2.99141,-3.11201 -3.28647,-4.28611 l -0.53648,-2.13473 -2.24827,-0.53648 c -2.0361,-0.48584 -4.05603,-2.97427 -5.71171,-7.03647 -1.47356,-3.61537 -2.378468,-4.62447 -5.974418,-6.66226 -2.09858,-1.18925 -4.52414,-3.33001 -5.39014,-4.75726 l -1.57455,-2.59498 1.16435,-1.86442 1.16435,-1.86442 -1.07425,-1.07425 -1.07425,-1.07425 1.1878,-7.36315 c 0.65329,-4.04974 0.90408,-8.10252 0.55731,-9.00619 -0.34677,-0.90368 -0.33831,-2.11581 0.0188,-2.69364 l 0.6493,-1.05059 1.84993,0.99006 c 1.01746,0.54453 2.81635,2.55374 3.99752,4.46492 1.18117,1.91117 4.618908,5.22804 7.639408,7.37081 5.73546,4.06877 8.64635,8.27156 9.82096,14.17962 0.38272,1.925 1.12541,4.625 1.65042,6 l 0.95457,2.5 -0.96902,5 -0.96902,5 1.95192,2.70951 1.95193,2.7095 0,4.0405 0,4.04049 -1.5,0 c -0.825,0 -1.5,-0.64234 -1.5,-1.42742 z m -24.985008,-22.54457 -1.08536,-2.02801 0.91274,0 c 0.50201,0 1.43969,0.63494 2.08374,1.41097 l 1.17101,1.41097 -0.99839,0.61704 c -0.54911,0.33937 -1.48679,-0.29557 -2.08374,-1.41097 z m -5.01499,-39.96899 c 0,-2.41457 0.55611,-2.65816 1.34934,-0.59105 0.30982,0.80739 0.13297,1.73395 -0.39301,2.05902 l -0.95633,0.59104 z m 13,-10.55902 c 0,-0.825 0.45,-1.5 0.999998,-1.5 0.55,0 1,0.675 1,1.5 0,0.825 -0.45,1.5 -1,1.5 -0.549998,0 -0.999998,-0.675 -0.999998,-1.5 z m -15,-0.5 c 0,-0.55 0.476558,-1 1.059017,-1 0.582459,0 0.780902,0.45 0.440983,1 -0.339919,0.55 -0.816476,1 -1.059017,1 -0.242541,0 -0.440983,-0.45 -0.440983,-1 z m 2.19495,-6.5 0.037,-3 0.46099,1.76903 c 0.25354,0.97297 0.23687,2.32297 -0.037,3 -0.27393,0.67703 -0.48137,-0.11903 -0.46099,-1.76903 z m 6.50062,-8.72627 -1.80442,-1.32649 0.66141,-1.72362 c 1.27655,-3.32662 4.0612,-0.97801 3.28201,2.76808 l -0.33457,1.60853 z m -0.69557,-15.14328 c 0,-1.64538 1.79537,-3.16841 2.68558,-2.2782 0.30388,0.30388 -0.17606,1.28108 -1.06653,2.17156 l -1.61905,1.61905 z M 166.51703,29.060909 c 0,-2.591 1.47779,-4.212993 2.4319,-2.669209 0.31355,0.507338 1.58214,0.703757 2.8191,0.436488 l 2.249,-0.485944 -2.80576,2.579824 c -3.50437,3.222172 -4.69424,3.257364 -4.69424,0.138841 z m 116,-9.059017 c 0,-0.916667 0.48375,-1.505417 1.075,-1.308333 0.59125,0.197083 1.075,0.785833 1.075,1.308333 0,0.5225 -0.48375,1.11125 -1.075,1.308333 -0.59125,0.197084 -1.075,-0.391666 -1.075,-1.308333 z m -31,-9.5 c 0,-0.5499996 0.87344,-0.9999996 1.94098,-0.9999996 1.06754,0 2.2191,0.45 2.55902,0.9999996 l 0.61803,1 -2.55901,0 c -1.40746,0 -2.55902,-0.45 -2.55902,-1 z"
     style="fill:#130b0c" />
</svg>
